<?xml version="1.0" encoding="UTF-8" standalone="no"?>
<!DOCTYPE svg PUBLIC "-//W3C//DTD SVG 1.1//EN" "http://www.w3.org/Graphics/SVG/1.1/DTD/svg11.dtd">
<svg width="100%" height="100%" viewBox="0 0 850 601" version="1.1" xmlns="http://www.w3.org/2000/svg" xmlns:xlink="http://www.w3.org/1999/xlink" xml:space="preserve" xmlns:serif="http://www.serif.com/" style="fill-rule:evenodd;clip-rule:evenodd;stroke-linejoin:round;stroke-miterlimit:2;">
    <g transform="matrix(1,0,0,1,-163.117,-713.42)">
        <g transform="matrix(0.435744,-0.17093,0.165991,0.448711,-274.368,590.267)">
            <path d="M905.602,1193.7L905.354,1194.63C904.612,1197.4 902.946,1200.17 901.281,1202.94C898.873,1208.48 896.465,1214.02 893.134,1219.56C878.819,1245.41 868.892,1258.34 850.703,1281.43C841.27,1292.51 833.008,1302.66 823.576,1313.74C818.893,1317.44 814.885,1322.05 810.878,1326.67C809.46,1328.52 803.359,1334.06 802.188,1334.98C796.086,1340.52 789.985,1346.06 783.884,1351.6L782.96,1351.6C744.227,1361.76 730.421,1423.62 774.066,1422.7C814.695,1422.7 859.269,1370.07 884.977,1339.6C924.554,1295.28 961.494,1243.57 979.29,1190.93C998.504,1136.46 976.644,1093.98 922.727,1088.44C874.102,1083.82 816.636,1108.76 769.261,1137.38C638.845,1214.02 518.647,1338.67 448.673,1468.87C391.596,1575.06 345.608,1770.81 480.945,1792.97C554.368,1804.98 634.954,1752.34 697.319,1698.79C759.932,1644.31 818.802,1579.67 858.596,1510.42C884.323,1466.1 819.342,1446.71 793.616,1491.03C780.967,1514.12 770.792,1527.96 751.927,1550.13C731.149,1575.98 708.771,1600.91 685.042,1624C662.483,1646.16 638.573,1666.47 612.634,1684.01C592.055,1698.79 567.106,1712.64 545.983,1719.1C500.968,1732.03 473.731,1706.17 469.596,1666.47C468.871,1655.39 469.318,1643.39 469.517,1632.31C470.078,1626.77 470.392,1622.15 470.705,1617.53C471.2,1615.68 470.772,1613.84 471.019,1612.91C471.514,1611.07 471.58,1607.38 471.827,1606.45C476.661,1581.52 484.083,1553.82 493.286,1529.81C540.768,1418.08 634.532,1312.82 736.324,1236.18C760.663,1217.71 779.825,1204.79 804.773,1190.93C815.491,1185.39 826.21,1179.86 836.68,1175.24C838.775,1174.32 848.998,1170.62 848.075,1170.62C853.186,1168.77 858.298,1166.93 863.162,1166C868.274,1164.16 873.138,1163.23 878.002,1162.31C880.097,1161.39 881.943,1161.39 883.79,1161.39C887.731,1160.46 891.424,1160.46 895.118,1160.46C896.965,1160.46 898.564,1161.39 900.411,1161.39L901.334,1161.39C902.933,1162.31 904.78,1162.31 907.303,1163.23C903.428,1160.46 909.826,1164.16 909.826,1164.16C909.578,1165.08 910.501,1165.08 910.501,1165.08L909.578,1165.08L910.501,1165.08C910.254,1166 910.93,1166.93 910.93,1166.93L910.683,1167.85C911.359,1168.77 910.864,1170.62 911.292,1172.47L911.045,1173.39C910.55,1175.24 910.979,1177.09 910.236,1179.86C908.999,1184.47 907.762,1189.09 905.602,1193.7ZM905.354,1194.63C904.859,1196.48 902.946,1200.17 905.354,1194.63ZM910.683,1167.85C912.034,1169.7 911.045,1173.39 910.683,1167.85ZM911.721,1174.32C911.226,1176.16 910.731,1178.01 911.721,1174.32ZM909.826,1164.16C908.902,1164.16 908.902,1164.16 908.226,1163.23L907.303,1163.23C901.763,1163.23 907.055,1164.16 908.226,1163.23C908.902,1164.16 908.902,1164.16 909.578,1165.08L909.826,1164.16Z" style="fill:rgb(162,135,58);fill-rule:nonzero;"/>
            <path d="M1278.58,1390.38C1262.83,1380.23 1240.54,1387.61 1225.25,1403.31C1192.09,1437.48 1158.58,1452.25 1126.2,1455.94C1160.27,1383.92 1168.31,1309.13 1100.76,1278.65C1058.36,1261.11 999.365,1281.43 960.778,1322.05C940.561,1342.37 930.929,1364.53 928.685,1386.69C895.474,1410.7 869.138,1450.4 851.673,1484.57C831.306,1526.12 815.423,1575.06 827.439,1612.91C840.132,1651.7 883.561,1675.7 930.49,1659.08C981.112,1642.46 1026.48,1597.22 1061.62,1555.67C1068.46,1547.36 1075.31,1539.05 1082.64,1528.89C1087.01,1529.81 1091.63,1529.81 1096.25,1529.81C1162.98,1528.89 1225.93,1493.8 1278.14,1440.25C1293.43,1424.55 1291.8,1399.62 1278.58,1390.38ZM1004.49,1369.15C1008.31,1361.76 1018.6,1354.37 1028.15,1349.76C1030.24,1348.83 1031.41,1347.91 1032.34,1347.91C1033.26,1347.91 1034.43,1346.99 1035.35,1346.99C1036.28,1346.99 1044.16,1345.14 1044.16,1345.14L1050.62,1345.14C1040.47,1345.14 1051.3,1346.06 1054.07,1346.06C1054.99,1346.06 1058.19,1347.91 1059.11,1347.91C1060.47,1349.76 1062.99,1350.68 1064.59,1351.6C1065.26,1352.53 1065.26,1352.53 1066.19,1352.53C1065.94,1353.45 1066.86,1353.45 1067.54,1354.37C1069.57,1357.14 1071.6,1359.91 1072.7,1362.68C1072.7,1362.68 1075.52,1372.84 1075.45,1376.53C1077.35,1386.69 1075.3,1397.77 1072.33,1408.85C1069.12,1420.85 1064.73,1433.78 1057.57,1446.71C1057.57,1446.71 1057.82,1445.79 1056.9,1445.79C1039.24,1439.32 1024.91,1427.32 1015.02,1412.54C1007.15,1400.54 997.509,1384.84 1004.49,1369.15ZM921.526,1592.6C922.697,1591.68 922.697,1591.68 921.526,1592.6ZM975.992,1554.74C971.061,1559.36 963.789,1565.82 957.012,1570.44C954.423,1573.21 952.081,1575.06 949.74,1576.9C948.569,1577.83 939.697,1583.37 939.697,1583.37C936.433,1585.21 933.168,1587.06 930.826,1588.91C929.903,1588.91 923.62,1591.68 923.62,1591.68C922.697,1591.68 921.773,1591.68 919.679,1592.6L916.909,1592.6C915.31,1591.68 914.634,1590.75 913.711,1590.75C912.787,1590.75 912.111,1589.83 912.111,1589.83C911.188,1589.83 910.512,1588.91 909.589,1588.91C908.913,1587.98 905.714,1586.14 905.038,1585.21C903.686,1583.37 900.982,1579.67 901.906,1579.67C896.993,1570.44 898.115,1559.36 900.589,1550.13C905.109,1529.81 908.259,1521.5 916.654,1503.96C921.65,1495.65 925.724,1487.34 930.473,1479.95C932.139,1477.18 934.728,1474.41 936.394,1471.64C936.394,1471.64 942.066,1464.25 942.314,1463.33C943.732,1461.48 945.15,1459.64 946.568,1457.79C950.805,1466.1 956.46,1472.56 963.039,1479.03C976.624,1493.8 993.722,1505.8 1012.73,1514.12C1001.63,1527.96 989.613,1541.82 975.992,1554.74Z" style="fill:rgb(162,135,58);fill-rule:nonzero;"/>
            <path d="M1357.24,1586.14L1358.16,1586.14C1357.49,1585.21 1357.49,1585.21 1357.24,1586.14ZM1590,1389.46C1570.25,1383.92 1550.41,1395.92 1538.07,1414.39C1503.66,1467.02 1459.76,1520.58 1407.82,1559.36C1397.28,1567.67 1394.01,1569.52 1385.14,1575.06C1380.95,1576.9 1376.52,1579.67 1372.33,1581.52C1371.41,1581.52 1370.24,1582.44 1369.31,1582.44C1370.24,1582.44 1364.2,1584.29 1363.28,1584.29C1361.18,1585.21 1360.26,1585.21 1358.41,1585.21L1358.16,1586.14L1357.24,1586.14C1357.49,1585.21 1357.74,1584.29 1357.98,1583.37L1357.31,1582.44C1357.31,1582.44 1359.78,1573.21 1360.77,1569.52C1361.27,1567.67 1362.93,1564.9 1363.67,1562.13C1363.18,1563.98 1366.33,1555.67 1367.75,1553.82C1370.9,1545.51 1376.14,1536.28 1381.14,1527.96C1403.11,1487.34 1423.45,1459.64 1450.9,1422.7C1470.75,1396.85 1489.68,1370.99 1512.74,1346.99C1549.9,1308.2 1495.84,1272.19 1459.84,1310.05C1454.91,1314.67 1450.66,1320.21 1446.65,1324.82C1438.06,1301.74 1415.67,1288.81 1384.64,1294.35C1310.32,1306.36 1244.86,1378.38 1203.35,1440.25C1183.18,1470.72 1166.21,1503.03 1153.61,1536.28C1144.41,1560.28 1136.56,1586.14 1138.68,1609.22C1140.92,1638.77 1162.75,1657.24 1197.54,1648C1227.47,1639.69 1256.99,1615.68 1281.14,1594.45C1282.32,1593.52 1282.56,1592.6 1283.73,1591.68C1280.88,1609.22 1283.14,1624.92 1291.68,1637.85C1317.12,1673.86 1376.3,1656.31 1417.39,1630.46C1495.14,1581.52 1554.63,1507.65 1603.05,1433.78C1615.39,1415.31 1606.31,1394.08 1590,1389.46ZM1357.92,1587.06C1357.92,1587.06 1358.16,1586.14 1357.24,1586.14L1358.16,1586.14L1357.92,1587.06ZM1355.64,1585.21C1354.04,1584.29 1354.97,1584.29 1355.64,1585.21ZM1373.96,1361.76M1374.89,1361.76M1381.29,1365.45L1379.44,1365.45L1381.29,1365.45ZM1212.77,1584.29M1198.13,1576.9C1196.95,1577.83 1195.11,1577.83 1195.11,1577.83C1195.11,1577.83 1196.28,1576.9 1198.13,1576.9ZM1194.18,1577.83L1196.03,1577.83C1194.86,1578.75 1193.94,1578.75 1194.18,1577.83ZM1213.44,1585.21C1215.47,1587.98 1213.62,1587.98 1213.44,1585.21ZM1282.06,1504.88C1261.6,1526.12 1245.14,1542.74 1220.55,1562.13C1219.38,1563.05 1218.21,1563.98 1216.12,1564.9C1217.35,1560.28 1219.76,1554.74 1221.25,1549.2C1221.99,1546.43 1223.65,1543.66 1224.4,1540.89L1224.89,1539.05C1229.95,1527.04 1235.94,1515.04 1241.93,1503.03C1257.91,1474.41 1270.49,1455.02 1290.77,1431.01C1297.62,1422.7 1311.98,1407 1315.49,1404.23C1320.42,1399.62 1325.35,1395 1331.21,1390.38C1333.55,1388.54 1336.81,1386.69 1339.4,1383.92C1341.5,1383 1343.59,1382.07 1345.01,1380.23L1345.93,1380.23C1351.54,1376.53 1358.07,1372.84 1364.35,1370.07C1365.28,1370.07 1366.45,1369.15 1367.37,1369.15L1368.54,1368.22C1370.39,1368.22 1372.48,1367.3 1374.33,1367.3L1374.08,1368.22C1373.34,1370.99 1373.02,1375.61 1372.78,1376.53C1371.05,1383 1369.31,1389.46 1366.41,1396.85C1365.17,1401.46 1362.77,1407 1361.53,1411.62C1361.28,1412.54 1359.37,1416.24 1357.7,1419.01C1334.09,1448.56 1308.87,1477.18 1282.06,1504.88ZM1355.64,1585.21C1354.04,1584.29 1353.37,1583.37 1355.64,1585.21ZM1356.75,1587.98L1357.67,1587.98C1356.25,1589.83 1356.25,1589.83 1356.75,1587.98Z" style="fill:rgb(162,135,58);fill-rule:nonzero;"/>
            <path d="M1534.89,1450.4C1530.33,1498.42 1542.04,1540.89 1543.76,1586.14C1544.6,1603.68 1543.84,1620.3 1536.87,1636C1531.62,1645.23 1519.42,1656.31 1507.53,1662.78C1472.54,1683.09 1434.86,1685.86 1418.03,1659.08C1396.04,1624 1330.47,1675.7 1352.46,1710.79C1396.45,1780.97 1533.82,1754.19 1592.84,1668.32C1624.11,1624 1621.28,1575.98 1616.28,1532.58C1610.19,1486.41 1601.14,1437.48 1622.13,1386.69C1630.35,1366.38 1646.02,1342.37 1661.05,1327.59C1664.81,1323.9 1669.74,1319.28 1674.43,1315.59C1676.52,1314.67 1687.98,1306.36 1683.3,1310.05C1686.81,1307.28 1690.08,1305.43 1694.26,1303.59C1696.36,1302.66 1698.45,1301.74 1700.55,1300.82C1705.91,1298.05 1691.49,1303.59 1700.55,1300.82C1748.83,1286.04 1749.16,1215.87 1699.96,1230.64C1603.4,1260.19 1543.55,1366.38 1534.89,1450.4Z" style="fill:rgb(162,135,58);fill-rule:nonzero;"/>
            <path d="M2232.65,1158.62L2232.9,1157.69L2232.65,1158.62ZM2230.56,1159.54C2231.48,1159.54 2231.73,1158.62 2232.65,1158.62C2230.56,1159.54 2227.54,1160.46 2230.56,1159.54ZM2232.65,1158.62L2231.73,1158.62L2232.65,1158.62ZM2232.9,1157.69C2236.41,1154.92 2239,1152.15 2232.9,1157.69ZM2285.05,1145.69C2270.23,1135.53 2247.94,1142.92 2232.65,1158.62C2233.58,1158.62 2233.58,1158.62 2231.73,1158.62L2231.48,1159.54L2231.73,1158.62C2231.48,1159.54 2231.48,1159.54 2230.56,1159.54C2227.54,1160.46 2225.2,1162.31 2221.93,1164.16C2221.01,1164.16 2218.92,1165.08 2217.99,1165.08C2211.96,1166.93 2205.25,1167.85 2199.21,1169.7L2194.59,1169.7C2189.73,1170.62 2185.11,1170.62 2180.5,1170.62C2141.9,1173.39 2105.28,1168.77 2068.65,1164.16C2039.17,1160.46 2007.17,1155.85 1975.16,1151.23C1983.74,1136.46 1992.56,1120.76 1996.52,1105.99C2007.97,1059.82 1935.27,1058.89 1923.58,1105.99C1921.91,1108.76 1921.17,1111.53 1919.5,1114.3C1915.43,1122.61 1910.18,1131.84 1904.94,1141.07C1904.02,1141.07 1903.77,1142 1903.52,1142.92C1884.62,1141.07 1865.23,1141.07 1845.6,1142C1809.77,1144.77 1770.36,1154 1742.55,1185.39C1706.74,1226.02 1759.88,1262.04 1795.45,1222.33C1796.62,1221.41 1798.71,1220.48 1800.81,1219.56C1801.73,1219.56 1802.9,1218.64 1803.82,1218.64C1808.69,1217.71 1812.63,1216.79 1817.49,1215.87C1819.34,1215.87 1823.28,1214.94 1825.13,1214.94C1828.82,1214.94 1833.68,1214.02 1838.3,1214.02L1858.62,1214.02C1858.12,1215.87 1856.95,1216.79 1856.45,1218.64C1813.96,1284.2 1771.71,1348.83 1731.73,1415.31C1700.33,1467.02 1663.76,1524.27 1647.07,1579.67C1639.21,1605.53 1641.52,1631.38 1660.64,1646.16C1682.05,1662.78 1715.6,1658.16 1745.1,1648C1847.33,1611.07 1937.14,1520.58 1996.9,1431.93C2009.24,1413.47 1999.48,1391.31 1983.17,1386.69C1964.34,1381.15 1944.26,1394.08 1931.92,1412.54C1887.33,1479.03 1818.98,1544.59 1747.78,1575.98C1745.68,1576.9 1743.59,1577.83 1741.5,1578.75C1739.65,1578.75 1735.46,1580.6 1735.46,1580.6C1732.44,1581.52 1722.72,1583.37 1721.54,1584.29C1720.62,1584.29 1719.94,1583.37 1719.02,1583.37C1719.27,1582.44 1719.76,1580.6 1720.26,1578.75C1721,1575.98 1724.64,1565.82 1724.4,1566.75C1746.56,1515.04 1777.47,1465.18 1808.37,1415.31C1845.69,1355.3 1883.69,1296.2 1921.93,1236.18C1925.26,1230.64 1928.35,1226.02 1931.68,1220.48C1936.97,1221.41 1941.34,1222.33 1945.96,1222.33C1951.25,1223.25 1953.1,1223.25 1954.02,1223.25C1958.39,1224.18 1962.76,1225.1 1967.37,1225.1C1977.96,1226.95 1988.55,1228.79 2000.06,1230.64C2021.47,1233.41 2042.89,1236.18 2064.31,1238.95C2099.33,1242.64 2136.2,1246.34 2173.2,1242.64C2212.97,1238.95 2252.63,1228.79 2284.62,1195.55C2300.83,1179.86 2298.28,1154.92 2285.05,1145.69ZM1716.68,1585.21C1716.93,1584.29 1716,1584.29 1716,1584.29L1716.93,1584.29C1717.6,1585.21 1717.6,1585.21 1718.28,1586.14C1717.6,1585.21 1716.68,1585.21 1716.68,1585.21ZM1716,1584.29L1716.93,1584.29L1716,1584.29ZM1717.78,1587.98C1717.78,1587.98 1717.54,1588.91 1718.21,1589.83C1717.54,1588.91 1717.78,1587.98 1717.78,1587.98ZM1717.78,1587.98C1717.78,1587.98 1718.03,1587.06 1718.28,1586.14C1718.03,1587.06 1718.03,1587.06 1717.78,1587.98Z" style="fill:rgb(162,135,58);fill-rule:nonzero;"/>
            <path d="M2106.14,1403.31C2063.85,1457.79 2016.25,1511.34 1958.52,1551.05C1940.29,1563.98 1919.28,1576.9 1898.9,1580.6C1899.64,1577.83 1901.06,1575.98 1902.48,1574.13C1910.62,1557.51 1920.37,1541.82 1930.12,1526.12C1953.86,1489.18 1974.95,1458.71 1998.63,1425.47C2016.89,1398.69 2038.84,1371.92 2054.82,1343.29C2079.87,1298.05 2014.64,1279.58 1989.84,1323.9C1987.93,1327.59 1985.09,1331.29 1983.18,1334.98C1981.51,1337.75 1980.09,1339.6 1978.43,1342.37C1977.5,1342.37 1977.26,1343.29 1977.26,1343.29C1977.01,1344.21 1975.84,1345.14 1975.59,1346.06C1963.75,1362.68 1951.66,1380.23 1939.82,1396.85C1909.97,1439.32 1881.3,1480.87 1855.14,1523.35C1837.31,1551.97 1813.57,1588.91 1815.81,1618.45C1819.36,1677.55 1914.01,1651.7 1957.38,1627.69C2036.41,1584.29 2104.22,1510.42 2159.04,1440.25C2192.33,1398.69 2139.44,1361.76 2106.14,1403.31ZM1876.31,1578.75C1878.4,1577.83 1880.25,1577.83 1880.92,1578.75L1876.31,1578.75ZM2052.32,1276.81C2066.47,1286.04 2092.39,1282.35 2105.64,1263.88C2112.74,1254.65 2119.83,1245.41 2127.17,1235.26C2134.01,1226.95 2138.33,1217.71 2138.28,1207.56C2138.66,1199.25 2134.67,1190.01 2127.35,1186.32C2113.2,1177.09 2088.21,1180.78 2074.03,1199.25C2066.93,1208.48 2059.84,1217.71 2052.75,1226.95C2045.66,1236.18 2041.34,1245.41 2041.39,1255.57C2041.93,1263.88 2045.92,1273.12 2052.32,1276.81Z" style="fill:rgb(162,135,58);fill-rule:nonzero;"/>
            <path d="M2341.9,1412.54C2320.49,1447.63 2295.39,1482.72 2264.14,1513.19C2255.21,1522.42 2243.5,1531.66 2232.96,1539.97C2220.33,1549.2 2216.82,1551.97 2201.91,1559.36C2196.55,1562.13 2191.19,1564.9 2184.91,1567.67C2185.16,1566.75 2182.82,1568.59 2180.72,1569.52C2178.88,1569.52 2176.78,1570.44 2175.86,1570.44C2165.64,1574.13 2155.66,1576.9 2145.01,1578.75L2120.08,1578.75C2118.23,1578.75 2116.38,1578.75 2113.86,1577.83C2117.31,1578.75 2116.63,1577.83 2112.26,1576.9C2110.66,1575.98 2111.09,1577.83 2110.48,1573.21C2108.95,1568.59 2108.83,1562.13 2109.64,1555.67C2111.01,1543.66 2115.65,1529.81 2121.88,1516.88C2190.89,1517.81 2269.08,1456.87 2302.16,1388.54C2320.12,1352.53 2343.1,1294.35 2300.64,1280.5C2270.12,1270.35 2229.03,1296.2 2200.25,1317.44C2117.44,1378.38 2041.9,1484.57 2034.27,1575.06C2030.46,1620.3 2056.28,1648 2100.53,1651.7C2124.29,1652.62 2150.21,1648.93 2175.28,1641.54C2277.2,1609.22 2352.66,1520.58 2406.88,1431.93C2433.78,1386.69 2368.55,1368.22 2341.9,1412.54ZM2225.7,1391.31C2225.95,1390.38 2225.95,1390.38 2225.7,1391.31ZM2269.83,1350.68C2273.53,1350.68 2271.43,1351.6 2267.74,1351.6C2267.74,1351.6 2268.91,1350.68 2269.83,1350.68ZM2225.47,1378.38C2230.16,1374.69 2233.67,1371.92 2237.18,1369.15C2234.78,1374.69 2230.95,1382.07 2227.62,1387.61C2227.12,1389.46 2225.95,1390.38 2225.46,1392.23C2224.29,1393.15 2223.12,1394.08 2221.7,1395.92C2218.86,1399.62 2209.68,1409.77 2209.68,1409.77C2196.05,1422.7 2182.5,1431.93 2167.84,1438.4C2176.1,1428.24 2183.19,1419.01 2192.13,1409.77C2202.49,1398.69 2213.52,1388.54 2225.47,1378.38Z" style="fill:rgb(162,135,58);fill-rule:nonzero;"/>
        </g>
        <g transform="matrix(0.615757,0,0,0.703362,385.736,-13.2359)">
            <path d="M627.136,1656.89L627.136,1642.61C631.479,1642.61 635.001,1642.31 637.701,1641.73C640.4,1641.14 642.455,1640.08 643.863,1638.55C645.389,1637.02 646.446,1634.85 647.033,1632.03C647.62,1629.09 647.913,1625.38 647.913,1620.91L647.913,1510.68L667.634,1510.68L667.634,1621.27C667.634,1629.5 666.754,1636.26 664.993,1641.55C663.232,1646.72 660.121,1650.6 655.661,1653.19C651.2,1655.66 644.861,1656.89 636.644,1656.89L627.136,1656.89Z" style="fill:rgb(162,135,58);fill-rule:nonzero;"/>
            <path d="M748.454,1655.13C738.828,1655.13 731.14,1653.25 725.388,1649.49C719.636,1645.72 715.527,1640.37 713.062,1633.44C710.597,1626.38 709.365,1618.15 709.365,1608.75L709.365,1554.6C709.365,1545.19 710.597,1537.14 713.062,1530.44C715.645,1523.62 719.753,1518.44 725.388,1514.91C731.14,1511.27 738.828,1509.45 748.454,1509.45C758.08,1509.45 765.71,1511.27 771.344,1514.91C776.979,1518.56 781.028,1523.73 783.494,1530.44C786.076,1537.14 787.367,1545.19 787.367,1554.6L787.367,1608.92C787.367,1618.21 786.076,1626.32 783.494,1633.26C781.028,1640.2 776.979,1645.61 771.344,1649.49C765.71,1653.25 758.08,1655.13 748.454,1655.13ZM748.454,1639.43C753.736,1639.43 757.727,1638.38 760.427,1636.26C763.127,1634.03 764.947,1630.97 765.886,1627.09C766.825,1623.09 767.294,1618.44 767.294,1613.15L767.294,1550.54C767.294,1545.25 766.825,1540.72 765.886,1536.96C764.947,1533.08 763.127,1530.14 760.427,1528.14C757.727,1526.03 753.736,1524.97 748.454,1524.97C743.172,1524.97 739.122,1526.03 736.305,1528.14C733.605,1530.14 731.785,1533.08 730.846,1536.96C729.907,1540.72 729.437,1545.25 729.437,1550.54L729.437,1613.15C729.437,1618.44 729.907,1623.09 730.846,1627.09C731.785,1630.97 733.605,1634.03 736.305,1636.26C739.122,1638.38 743.172,1639.43 748.454,1639.43Z" style="fill:rgb(162,135,58);fill-rule:nonzero;"/>
            <path d="M828.922,1653.54L828.922,1510.68L861.672,1510.68C868.129,1510.68 873.704,1511.39 878.4,1512.8C883.213,1514.21 887.204,1516.38 890.373,1519.32C893.543,1522.26 895.89,1526.03 897.416,1530.61C898.942,1535.08 899.705,1540.37 899.705,1546.49C899.705,1552.37 898.942,1557.48 897.416,1561.83C896.008,1566.06 893.777,1569.41 890.725,1571.88C887.791,1574.35 883.976,1575.94 879.28,1576.64C885.032,1577.94 889.669,1580.17 893.19,1583.35C896.712,1586.4 899.294,1590.4 900.938,1595.34C902.699,1600.16 903.579,1605.98 903.579,1612.8C903.579,1618.92 902.875,1624.5 901.466,1629.56C900.057,1634.61 897.827,1638.9 894.775,1642.43C891.84,1645.96 888.025,1648.72 883.33,1650.72C878.752,1652.6 873.294,1653.54 866.955,1653.54L828.922,1653.54ZM848.819,1639.26L862.201,1639.26C871.122,1639.26 877.05,1637.2 879.985,1633.08C883.037,1628.85 884.563,1622.09 884.563,1612.8C884.563,1606.81 883.741,1601.81 882.097,1597.81C880.571,1593.69 878.048,1590.64 874.526,1588.64C871.122,1586.52 866.485,1585.46 860.616,1585.46L848.819,1585.46L848.819,1639.26ZM848.819,1570.3L860.616,1570.3C866.25,1570.3 870.652,1569.53 873.822,1568C876.991,1566.36 879.222,1563.77 880.513,1560.24C881.804,1556.72 882.45,1552.13 882.45,1546.49C882.45,1539.9 881.452,1535.14 879.456,1532.2C877.461,1529.26 874.35,1527.44 870.124,1526.73C865.898,1525.91 860.381,1525.5 853.573,1525.5L848.819,1525.5L848.819,1570.3Z" style="fill:rgb(162,135,58);fill-rule:nonzero;"/>
            <path d="M976.828,1655.13C968.611,1655.13 961.744,1653.37 956.226,1649.84C950.827,1646.31 946.718,1641.43 943.901,1635.2C941.084,1628.97 939.44,1621.74 938.971,1613.51L956.579,1608.75C956.931,1613.8 957.694,1618.68 958.868,1623.38C960.159,1628.09 962.213,1631.97 965.03,1635.02C967.848,1637.96 971.78,1639.43 976.828,1639.43C981.993,1639.43 985.866,1638.02 988.449,1635.2C991.149,1632.26 992.499,1628.09 992.499,1622.68C992.499,1616.21 991.031,1611.04 988.097,1607.16C985.162,1603.16 981.464,1599.16 977.004,1595.16L953.057,1574C948.362,1569.88 944.899,1565.42 942.668,1560.6C940.438,1555.66 939.323,1549.6 939.323,1542.43C939.323,1531.96 942.316,1523.85 948.303,1518.09C954.29,1512.33 962.448,1509.45 972.778,1509.45C978.412,1509.45 983.343,1510.21 987.568,1511.74C991.912,1513.15 995.492,1515.38 998.309,1518.44C1001.24,1521.5 1003.53,1525.38 1005.18,1530.08C1006.94,1534.67 1008.11,1540.08 1008.7,1546.31L991.794,1550.89C991.442,1546.19 990.738,1541.9 989.681,1538.02C988.625,1534.02 986.747,1530.85 984.047,1528.5C981.464,1526.03 977.708,1524.79 972.778,1524.79C967.848,1524.79 963.974,1526.14 961.157,1528.85C958.457,1531.43 957.107,1535.32 957.107,1540.49C957.107,1544.84 957.811,1548.43 959.22,1551.25C960.746,1554.07 963.152,1556.95 966.439,1559.89L990.562,1581.05C995.961,1585.76 1000.72,1591.4 1004.82,1597.99C1008.93,1604.45 1010.99,1612.15 1010.99,1621.09C1010.99,1628.15 1009.52,1634.26 1006.59,1639.43C1003.65,1644.49 999.6,1648.37 994.435,1651.07C989.388,1653.78 983.519,1655.13 976.828,1655.13Z" style="fill:rgb(162,135,58);fill-rule:nonzero;"/>
        </g>
    </g>
</svg>
